<?xml version="1.0" encoding="UTF-8"?>
<svg xmlns="http://www.w3.org/2000/svg" width="760" height="440" font-family="sans-serif" font-size="12">
<rect width="760" height="440" fill="white"/>
<text x="380" y="24" text-anchor="middle" font-size="16" fill="#222222">reification / comunica — total query time vs dataset size</text><line x1="70" y1="380" x2="740" y2="380" stroke="#cccccc"/><text x="64" y="384" text-anchor="end" fill="#222222">0</text><line x1="70" y1="297.5" x2="740" y2="297.5" stroke="#cccccc"/><text x="64" y="301.5" text-anchor="end" fill="#222222">8261</text><line x1="70" y1="215" x2="740" y2="215" stroke="#cccccc"/><text x="64" y="219" text-anchor="end" fill="#222222">16523</text><line x1="70" y1="132.5" x2="740" y2="132.5" stroke="#cccccc"/><text x="64" y="136.5" text-anchor="end" fill="#222222">24784</text><line x1="70" y1="50" x2="740" y2="50" stroke="#cccccc"/><text x="64" y="54" text-anchor="end" fill="#222222">33045</text><text x="70" y="398" text-anchor="middle" fill="#222222">xs
</text><text x="70" y="412" text-anchor="middle" font-size="10" fill="#222222">0.30M</text><text x="203.49990620455532" y="398" text-anchor="middle" fill="#222222">s
</text><text x="203.49990620455532" y="412" text-anchor="middle" font-size="10" fill="#222222">0.67M</text><text x="740" y="398" text-anchor="middle" fill="#222222">m
</text><text x="740" y="412" text-anchor="middle" font-size="10" fill="#222222">2.17M</text><text x="380" y="434" text-anchor="middle" fill="#222222">dataset size (quads)</text><text x="18" y="215" transform="rotate(-90 18 215)" text-anchor="middle" fill="#222222">total median ms</text><path d="M70,380 L203.49990620455532,380 L740,380" fill="none" stroke="#2b7bba" stroke-width="2"/><circle cx="70" cy="380" r="3.5" fill="#2b7bba"><title>rewriting xs: 0ms</title></circle><circle cx="203.49990620455532" cy="380" r="3.5" fill="#2b7bba"><title>rewriting s: 0ms</title></circle><circle cx="740" cy="380" r="3.5" fill="#2b7bba"><title>rewriting m: 0ms</title></circle><path d="M70,380 L203.49990620455532,380 L740,380" fill="none" stroke="#7a52c7" stroke-width="2"/><circle cx="70" cy="380" r="3.5" fill="#7a52c7"><title>rewriting+removeProjections xs: 0ms</title></circle><circle cx="203.49990620455532" cy="380" r="3.5" fill="#7a52c7"><title>rewriting+removeProjections s: 0ms</title></circle><circle cx="740" cy="380" r="3.5" fill="#7a52c7"><title>rewriting+removeProjections m: 0ms</title></circle><path d="M70,380 L203.49990620455532,380 L740,380" fill="none" stroke="#17a398" stroke-width="2"/><circle cx="70" cy="380" r="3.5" fill="#17a398"><title>rewriting+substitution xs: 0ms</title></circle><circle cx="203.49990620455532" cy="380" r="3.5" fill="#17a398"><title>rewriting+substitution s: 0ms</title></circle><circle cx="740" cy="380" r="3.5" fill="#17a398"><title>rewriting+substitution m: 0ms</title></circle><path d="M70,305.3318202451203 L203.49990620455532,265.84566500226964 L740,50" fill="none" stroke="#e08214" stroke-width="2"/><circle cx="70" cy="305.3318202451203" r="3.5" fill="#e08214"><title>materialized xs: 7477ms</title></circle><circle cx="203.49990620455532" cy="265.84566500226964" r="3.5" fill="#e08214"><title>materialized s: 11431ms</title></circle><circle cx="740" cy="50" r="3.5" fill="#e08214"><title>materialized m: 33045ms</title></circle>
<rect x="80" y="50" width="12" height="12" fill="#2b7bba"/>
<text x="98" y="61" fill="#222222">rewriting</text>
<rect x="80" y="68" width="12" height="12" fill="#7a52c7"/>
<text x="98" y="79" fill="#222222">rewriting+removeProjections</text>
<rect x="80" y="86" width="12" height="12" fill="#17a398"/>
<text x="98" y="97" fill="#222222">rewriting+substitution</text>
<rect x="80" y="104" width="12" height="12" fill="#e08214"/>
<text x="98" y="115" fill="#222222">materialized</text>
</svg>