<?xml version="1.0" encoding="UTF-8"?>
<svg xmlns="http://www.w3.org/2000/svg" width="900" height="460" font-family="sans-serif" font-size="12">
<rect width="900" height="460" fill="white"/>
<text x="450" y="24" text-anchor="middle" font-size="16" fill="#222222">reification / oxigraph — median query time by query (scale s)</text><line x1="60" y1="370" x2="880" y2="370" stroke="#cccccc"/><text x="54" y="374" text-anchor="end" fill="#222222">0</text><line x1="60" y1="290" x2="880" y2="290" stroke="#cccccc"/><text x="54" y="294" text-anchor="end" fill="#222222">281</text><line x1="60" y1="210" x2="880" y2="210" stroke="#cccccc"/><text x="54" y="214" text-anchor="end" fill="#222222">563</text><line x1="60" y1="130" x2="880" y2="130" stroke="#cccccc"/><text x="54" y="134" text-anchor="end" fill="#222222">844</text><line x1="60" y1="50" x2="880" y2="50" stroke="#cccccc"/><text x="54" y="54" text-anchor="end" fill="#222222">1125</text><text x="16" y="210" transform="rotate(-90 16 210)" text-anchor="middle" fill="#222222">median ms</text><rect x="115.9090909090909" y="363.4577777777778" width="10.424242424242424" height="6.542222222222223" fill="#e08214"><title>reification/A-Q1 materialized: 23ms, rows=3</title></rect><text x="97.27272727272728" y="384" text-anchor="end" transform="rotate(-40 97.27272727272728 384)" fill="#222222">A-Q1</text><rect x="190.45454545454547" y="293.7688888888889" width="10.424242424242424" height="76.23111111111112" fill="#e08214"><title>reification/A-Q2 materialized: 268ms, rows=1</title></rect><text x="171.81818181818184" y="384" text-anchor="end" transform="rotate(-40 171.81818181818184 384)" fill="#222222">A-Q2</text><rect x="265" y="257.36" width="10.424242424242424" height="112.63999999999999" fill="#e08214"><title>reification/A-Q3 materialized: 396ms, rows=1</title></rect><text x="246.36363636363637" y="384" text-anchor="end" transform="rotate(-40 246.36363636363637 384)" fill="#222222">A-Q3</text><rect x="339.5454545454545" y="229.48444444444445" width="10.424242424242424" height="140.51555555555555" fill="#e08214"><title>reification/A-Q4 materialized: 494ms, rows=1</title></rect><text x="320.9090909090909" y="384" text-anchor="end" transform="rotate(-40 320.9090909090909 384)" fill="#222222">A-Q4</text><rect x="414.09090909090907" y="363.17333333333335" width="10.424242424242424" height="6.826666666666666" fill="#e08214"><title>reification/B-Q1 materialized: 24ms, rows=5</title></rect><text x="395.45454545454544" y="384" text-anchor="end" transform="rotate(-40 395.45454545454544 384)" fill="#222222">B-Q1</text><rect x="488.6363636363636" y="292.3466666666667" width="10.424242424242424" height="77.65333333333334" fill="#e08214"><title>reification/B-Q2 materialized: 273ms, rows=1</title></rect><text x="470" y="384" text-anchor="end" transform="rotate(-40 470 384)" fill="#222222">B-Q2</text><rect x="563.1818181818182" y="292.91555555555556" width="10.424242424242424" height="77.08444444444444" fill="#e08214"><title>reification/B-Q3 materialized: 271ms, rows=0</title></rect><text x="544.5454545454545" y="384" text-anchor="end" transform="rotate(-40 544.5454545454545 384)" fill="#222222">B-Q3</text><rect x="637.7272727272729" y="269.02222222222224" width="10.424242424242424" height="100.97777777777777" fill="#e08214"><title>reification/F-Q1 materialized: 355ms, rows=2</title></rect><text x="619.0909090909091" y="384" text-anchor="end" transform="rotate(-40 619.0909090909091 384)" fill="#222222">F-Q1</text><rect x="712.2727272727274" y="271.5822222222222" width="10.424242424242424" height="98.41777777777779" fill="#e08214"><title>reification/F-Q2 materialized: 346ms, rows=0</title></rect><text x="693.6363636363636" y="384" text-anchor="end" transform="rotate(-40 693.6363636363636 384)" fill="#222222">F-Q2</text><rect x="786.8181818181819" y="50" width="10.424242424242424" height="320" fill="#e08214"><title>reification/F-Q4 materialized: 1125ms, rows=20004</title></rect><text x="768.1818181818181" y="384" text-anchor="end" transform="rotate(-40 768.1818181818181 384)" fill="#222222">F-Q4</text><rect x="861.3636363636365" y="196.20444444444445" width="10.424242424242424" height="173.79555555555555" fill="#e08214"><title>reification/F-Q5 materialized: 611ms, rows=3386</title></rect><text x="842.7272727272727" y="384" text-anchor="end" transform="rotate(-40 842.7272727272727 384)" fill="#222222">F-Q5</text>
<rect x="740" y="50" width="12" height="12" fill="#2b7bba"/>
<text x="758" y="61" fill="#222222">rewriting</text>
<rect x="740" y="68" width="12" height="12" fill="#7a52c7"/>
<text x="758" y="79" fill="#222222">rewriting+removeProjections</text>
<rect x="740" y="86" width="12" height="12" fill="#17a398"/>
<text x="758" y="97" fill="#222222">rewriting+pushDownAssertions</text>
<rect x="740" y="104" width="12" height="12" fill="#c0399f"/>
<text x="758" y="115" fill="#222222">rewriting+pullUpExtends</text>
<rect x="740" y="122" width="12" height="12" fill="#e08214"/>
<text x="758" y="133" fill="#222222">materialized</text>
</svg>