<?xml version="1.0" encoding="UTF-8"?>
<svg xmlns="http://www.w3.org/2000/svg" width="900" height="460" font-family="sans-serif" font-size="12">
<rect width="900" height="460" fill="white"/>
<text x="450" y="24" text-anchor="middle" font-size="16" fill="#222222">singleton / oxigraph — median query time by query (scale s)</text><line x1="60" y1="370" x2="880" y2="370" stroke="#cccccc"/><text x="54" y="374" text-anchor="end" fill="#222222">0</text><line x1="60" y1="290" x2="880" y2="290" stroke="#cccccc"/><text x="54" y="294" text-anchor="end" fill="#222222">8449</text><line x1="60" y1="210" x2="880" y2="210" stroke="#cccccc"/><text x="54" y="214" text-anchor="end" fill="#222222">16899</text><line x1="60" y1="130" x2="880" y2="130" stroke="#cccccc"/><text x="54" y="134" text-anchor="end" fill="#222222">25348</text><line x1="60" y1="50" x2="880" y2="50" stroke="#cccccc"/><text x="54" y="54" text-anchor="end" fill="#222222">33797</text><text x="16" y="210" transform="rotate(-90 16 210)" text-anchor="middle" fill="#222222">median ms</text><rect x="111.25" y="369.7916974879427" width="9.388888888888888" height="0.2083025120572832" fill="#e08214"><title>singleton/A-Q1 materialized: 22ms, rows=3</title></rect><text x="94.16666666666666" y="384" text-anchor="end" transform="rotate(-40 94.16666666666666 384)" fill="#222222">A-Q1</text><rect x="156.80555555555551" y="355.9585170281386" width="9.388888888888888" height="14.041482971861408" fill="#17a398"><title>singleton/A-Q2 rewriting+pushDownAssertions: 1483ms, rows=1</title></rect><rect x="168.1944444444444" y="357.4261029085422" width="9.388888888888888" height="12.573897091457821" fill="#c0399f"><title>singleton/A-Q2 rewriting+pullUpExtends: 1328ms, rows=1</title></rect><rect x="179.5833333333333" y="369.7632925999349" width="9.388888888888888" height="0.23670740006509453" fill="#e08214"><title>singleton/A-Q2 materialized: 25ms, rows=0</title></rect><text x="162.49999999999997" y="384" text-anchor="end" transform="rotate(-40 162.49999999999997 384)" fill="#222222">A-Q2</text><rect x="225.13888888888886" y="102.89936976654735" width="9.388888888888888" height="267.10063023345265" fill="#17a398"><title>singleton/A-Q3 rewriting+pushDownAssertions: 28210ms, rows=1</title></rect><rect x="236.52777777777774" y="81.50102080066279" width="9.388888888888888" height="288.4989791993372" fill="#c0399f"><title>singleton/A-Q3 rewriting+pullUpExtends: 30470ms, rows=1</title></rect><rect x="247.91666666666663" y="369.5833949758854" width="9.388888888888888" height="0.4166050241145664" fill="#e08214"><title>singleton/A-Q3 materialized: 44ms, rows=0</title></rect><text x="230.83333333333331" y="384" text-anchor="end" transform="rotate(-40 230.83333333333331 384)" fill="#222222">A-Q3</text><rect x="293.47222222222223" y="130.3290232860905" width="9.388888888888888" height="239.6709767139095" fill="#17a398"><title>singleton/A-Q4 rewriting+pushDownAssertions: 25313ms, rows=1</title></rect><rect x="304.86111111111114" y="127.4127881172885" width="9.388888888888888" height="242.5872118827115" fill="#c0399f"><title>singleton/A-Q4 rewriting+pullUpExtends: 25621ms, rows=1</title></rect><rect x="316.25" y="367.57611622333343" width="9.388888888888888" height="2.423883776666568" fill="#e08214"><title>singleton/A-Q4 materialized: 256ms, rows=1</title></rect><text x="299.1666666666667" y="384" text-anchor="end" transform="rotate(-40 299.1666666666667 384)" fill="#222222">A-Q4</text><rect x="384.5833333333333" y="369.7727608959375" width="9.388888888888888" height="0.22723910406249076" fill="#e08214"><title>singleton/B-Q1 materialized: 24ms, rows=5</title></rect><text x="367.5" y="384" text-anchor="end" transform="rotate(-40 367.5 384)" fill="#222222">B-Q1</text><rect x="452.91666666666663" y="369.7632925999349" width="9.388888888888888" height="0.23670740006509453" fill="#e08214"><title>singleton/B-Q2 materialized: 25ms, rows=0</title></rect><text x="435.8333333333333" y="384" text-anchor="end" transform="rotate(-40 435.8333333333333 384)" fill="#222222">B-Q2</text><rect x="521.25" y="369.7916974879427" width="9.388888888888888" height="0.2083025120572832" fill="#e08214"><title>singleton/B-Q3 materialized: 22ms, rows=0</title></rect><text x="504.1666666666667" y="384" text-anchor="end" transform="rotate(-40 504.1666666666667 384)" fill="#222222">B-Q3</text><rect x="566.8055555555555" y="142.35375920939728" width="9.388888888888888" height="227.64624079060272" fill="#17a398"><title>singleton/F-Q1 rewriting+pushDownAssertions: 24043ms, rows=2</title></rect><rect x="578.1944444444443" y="50" width="9.388888888888888" height="320" fill="#c0399f"><title>singleton/F-Q1 rewriting+pullUpExtends: 33797ms, rows=2</title></rect><rect x="589.5833333333333" y="369.6402047519011" width="9.388888888888888" height="0.3597952480989437" fill="#e08214"><title>singleton/F-Q1 materialized: 38ms, rows=0</title></rect><text x="572.4999999999999" y="384" text-anchor="end" transform="rotate(-40 572.4999999999999 384)" fill="#222222">F-Q1</text><rect x="657.9166666666666" y="369.5549900878776" width="9.388888888888888" height="0.4450099121223777" fill="#e08214"><title>singleton/F-Q2 materialized: 47ms, rows=0</title></rect><text x="640.8333333333333" y="384" text-anchor="end" transform="rotate(-40 640.8333333333333 384)" fill="#222222">F-Q2</text><rect x="726.25" y="369.7443560079297" width="9.388888888888888" height="0.2556439920703021" fill="#e08214"><title>singleton/F-Q3 materialized: 27ms, rows=0</title></rect><text x="709.1666666666666" y="384" text-anchor="end" transform="rotate(-40 709.1666666666666 384)" fill="#222222">F-Q3</text><rect x="771.8055555555555" y="313.938219368583" width="9.388888888888888" height="56.06178063141699" fill="#17a398"><title>singleton/F-Q4 rewriting+pushDownAssertions: 5921ms, rows=20004</title></rect><rect x="783.1944444444443" y="324.28706689942896" width="9.388888888888888" height="45.712933100571064" fill="#c0399f"><title>singleton/F-Q4 rewriting+pullUpExtends: 4828ms, rows=20004</title></rect><rect x="794.5833333333333" y="369.67807793591146" width="9.388888888888888" height="0.3219220640885285" fill="#e08214"><title>singleton/F-Q4 materialized: 34ms, rows=0</title></rect><text x="777.4999999999999" y="384" text-anchor="end" transform="rotate(-40 777.4999999999999 384)" fill="#222222">F-Q4</text><rect x="840.1388888888889" y="338.58419386336067" width="9.388888888888888" height="31.415806136639347" fill="#17a398"><title>singleton/F-Q5 rewriting+pushDownAssertions: 3318ms, rows=3386</title></rect><rect x="851.5277777777777" y="342.541941592449" width="9.388888888888888" height="27.458058407550965" fill="#c0399f"><title>singleton/F-Q5 rewriting+pullUpExtends: 2900ms, rows=3386</title></rect><rect x="862.9166666666666" y="369.7443560079297" width="9.388888888888888" height="0.2556439920703021" fill="#e08214"><title>singleton/F-Q5 materialized: 27ms, rows=0</title></rect><text x="845.8333333333333" y="384" text-anchor="end" transform="rotate(-40 845.8333333333333 384)" fill="#222222">F-Q5</text>
<rect x="740" y="50" width="12" height="12" fill="#2b7bba"/>
<text x="758" y="61" fill="#222222">rewriting</text>
<rect x="740" y="68" width="12" height="12" fill="#7a52c7"/>
<text x="758" y="79" fill="#222222">rewriting+removeProjections</text>
<rect x="740" y="86" width="12" height="12" fill="#17a398"/>
<text x="758" y="97" fill="#222222">rewriting+pushDownAssertions</text>
<rect x="740" y="104" width="12" height="12" fill="#c0399f"/>
<text x="758" y="115" fill="#222222">rewriting+pullUpExtends</text>
<rect x="740" y="122" width="12" height="12" fill="#e08214"/>
<text x="758" y="133" fill="#222222">materialized</text>
</svg>