<?xml version="1.0" encoding="UTF-8"?>
<svg xmlns="http://www.w3.org/2000/svg" width="900" height="460" font-family="sans-serif" font-size="12">
<rect width="900" height="460" fill="white"/>
<text x="450" y="24" text-anchor="middle" font-size="16" fill="#222222">reification / jena — median query time by query (scale s)</text><line x1="60" y1="370" x2="880" y2="370" stroke="#cccccc"/><text x="54" y="374" text-anchor="end" fill="#222222">0</text><line x1="60" y1="290" x2="880" y2="290" stroke="#cccccc"/><text x="54" y="294" text-anchor="end" fill="#222222">6538</text><line x1="60" y1="210" x2="880" y2="210" stroke="#cccccc"/><text x="54" y="214" text-anchor="end" fill="#222222">13076</text><line x1="60" y1="130" x2="880" y2="130" stroke="#cccccc"/><text x="54" y="134" text-anchor="end" fill="#222222">19613</text><line x1="60" y1="50" x2="880" y2="50" stroke="#cccccc"/><text x="54" y="54" text-anchor="end" fill="#222222">26151</text><text x="16" y="210" transform="rotate(-90 16 210)" text-anchor="middle" fill="#222222">median ms</text><rect x="66.83333333333333" y="287.6597453252266" width="11.666666666666666" height="82.34025467477343" fill="#2b7bba"><title>reification/A-Q1 rewriting: 6729ms, rows=0</title></rect><rect x="80.5" y="252.5283927956866" width="11.666666666666666" height="117.4716072043134" fill="#7a52c7"><title>reification/A-Q1 rewriting+removeProjections: 9600ms, rows=3</title></rect><rect x="94.16666666666666" y="349.4791786164965" width="11.666666666666666" height="20.5208213835035" fill="#17a398"><title>reification/A-Q1 rewriting+pushDownAssertions: 1677ms, rows=3</title></rect><rect x="107.83333333333333" y="369.755267484991" width="11.666666666666666" height="0.24473251500898627" fill="#e08214"><title>reification/A-Q1 materialized: 20ms, rows=3</title></rect><text x="94.16666666666666" y="384" text-anchor="end" transform="rotate(-40 94.16666666666666 384)" fill="#222222">A-Q1</text><rect x="135.16666666666663" y="321.2982295132117" width="11.666666666666666" height="48.70177048678827" fill="#2b7bba"><title>reification/A-Q2 rewriting: 3980ms, rows=0</title></rect><rect x="148.8333333333333" y="263.1742571985775" width="11.666666666666666" height="106.8257428014225" fill="#7a52c7"><title>reification/A-Q2 rewriting+removeProjections: 8730ms, rows=1</title></rect><rect x="162.49999999999997" y="339.5675117586326" width="11.666666666666666" height="30.432488241367444" fill="#17a398"><title>reification/A-Q2 rewriting+pushDownAssertions: 2487ms, rows=1</title></rect><rect x="176.16666666666663" y="369.33922220947574" width="11.666666666666666" height="0.6607777905242629" fill="#e08214"><title>reification/A-Q2 materialized: 54ms, rows=1</title></rect><text x="162.49999999999997" y="384" text-anchor="end" transform="rotate(-40 162.49999999999997 384)" fill="#222222">A-Q2</text><rect x="203.49999999999997" y="316.3546327100302" width="11.666666666666666" height="53.6453672899698" fill="#2b7bba"><title>reification/A-Q3 rewriting: 4384ms, rows=0</title></rect><rect x="217.16666666666663" y="323.20714313028185" width="11.666666666666666" height="46.79285686971817" fill="#7a52c7"><title>reification/A-Q3 rewriting+removeProjections: 3824ms, rows=0</title></rect><rect x="230.83333333333331" y="336.26362280601126" width="11.666666666666666" height="33.73637719398876" fill="#17a398"><title>reification/A-Q3 rewriting+pushDownAssertions: 2757ms, rows=1</title></rect><rect x="244.49999999999997" y="368.3358188979389" width="11.666666666666666" height="1.6641811020611066" fill="#e08214"><title>reification/A-Q3 materialized: 136ms, rows=1</title></rect><text x="230.83333333333331" y="384" text-anchor="end" transform="rotate(-40 230.83333333333331 384)" fill="#222222">A-Q3</text><rect x="271.83333333333337" y="316.1343734465221" width="11.666666666666666" height="53.86562655347788" fill="#2b7bba"><title>reification/A-Q4 rewriting: 4402ms, rows=1</title></rect><rect x="285.50000000000006" y="325.22618637910597" width="11.666666666666666" height="44.77381362089404" fill="#7a52c7"><title>reification/A-Q4 rewriting+removeProjections: 3659ms, rows=1</title></rect><rect x="299.1666666666667" y="332.6048717066269" width="11.666666666666666" height="37.395128293373105" fill="#17a398"><title>reification/A-Q4 rewriting+pushDownAssertions: 3056ms, rows=1</title></rect><rect x="312.83333333333337" y="366.4391419066192" width="11.666666666666666" height="3.5608580933807503" fill="#e08214"><title>reification/A-Q4 materialized: 291ms, rows=1</title></rect><text x="299.1666666666667" y="384" text-anchor="end" transform="rotate(-40 299.1666666666667 384)" fill="#222222">A-Q4</text><rect x="340.1666666666667" y="318.9977438721273" width="11.666666666666666" height="51.00225612787274" fill="#2b7bba"><title>reification/B-Q1 rewriting: 4168ms, rows=0</title></rect><rect x="353.83333333333337" y="266.0376276241826" width="11.666666666666666" height="103.96237237581737" fill="#7a52c7"><title>reification/B-Q1 rewriting+removeProjections: 8496ms, rows=5</title></rect><rect x="367.5" y="348.2065695384498" width="11.666666666666666" height="21.793430461550226" fill="#17a398"><title>reification/B-Q1 rewriting+pushDownAssertions: 1781ms, rows=5</title></rect><rect x="381.1666666666667" y="369.8776337424955" width="11.666666666666666" height="0.12236625750449313" fill="#e08214"><title>reification/B-Q1 materialized: 10ms, rows=5</title></rect><text x="367.5" y="384" text-anchor="end" transform="rotate(-40 367.5 384)" fill="#222222">B-Q1</text><rect x="408.5" y="322.0324270582387" width="11.666666666666666" height="47.96757294176131" fill="#2b7bba"><title>reification/B-Q2 rewriting: 3920ms, rows=0</title></rect><rect x="422.1666666666667" y="178.88837902948262" width="11.666666666666666" height="191.11162097051738" fill="#7a52c7"><title>reification/B-Q2 rewriting+removeProjections: 15618ms, rows=1</title></rect><rect x="435.8333333333333" y="344.645711445069" width="11.666666666666666" height="25.354288554930978" fill="#17a398"><title>reification/B-Q2 rewriting+pushDownAssertions: 2072ms, rows=1</title></rect><rect x="449.5" y="368.9598868112118" width="11.666666666666666" height="1.0401131887881916" fill="#e08214"><title>reification/B-Q2 materialized: 85ms, rows=1</title></rect><text x="435.8333333333333" y="384" text-anchor="end" transform="rotate(-40 435.8333333333333 384)" fill="#222222">B-Q2</text><rect x="476.83333333333337" y="320.3682459561776" width="11.666666666666666" height="49.63175404382242" fill="#2b7bba"><title>reification/B-Q3 rewriting: 4056ms, rows=0</title></rect><rect x="490.50000000000006" y="134.00443577683455" width="11.666666666666666" height="235.99556422316545" fill="#7a52c7"><title>reification/B-Q3 rewriting+removeProjections: 19286ms, rows=0</title></rect><rect x="504.1666666666667" y="343.446522121525" width="11.666666666666666" height="26.553477878475007" fill="#17a398"><title>reification/B-Q3 rewriting+pushDownAssertions: 2170ms, rows=0</title></rect><rect x="517.8333333333334" y="369.24132920347216" width="11.666666666666666" height="0.7586707965278574" fill="#e08214"><title>reification/B-Q3 materialized: 62ms, rows=0</title></rect><text x="504.1666666666667" y="384" text-anchor="end" transform="rotate(-40 504.1666666666667 384)" fill="#222222">B-Q3</text><rect x="545.1666666666665" y="321.62861840847387" width="11.666666666666666" height="48.37138159152613" fill="#2b7bba"><title>reification/F-Q1 rewriting: 3953ms, rows=0</title></rect><rect x="558.8333333333331" y="269.12125731329587" width="11.666666666666666" height="100.87874268670413" fill="#7a52c7"><title>reification/F-Q1 rewriting+removeProjections: 8244ms, rows=2</title></rect><rect x="572.4999999999999" y="349.41799548774424" width="11.666666666666666" height="20.582004512255743" fill="#17a398"><title>reification/F-Q1 rewriting+pushDownAssertions: 1682ms, rows=2</title></rect><rect x="586.1666666666665" y="368.2379258919353" width="11.666666666666666" height="1.7620741080647013" fill="#e08214"><title>reification/F-Q1 materialized: 144ms, rows=2</title></rect><text x="572.4999999999999" y="384" text-anchor="end" transform="rotate(-40 572.4999999999999 384)" fill="#222222">F-Q1</text><rect x="613.4999999999999" y="323.21937975603225" width="11.666666666666666" height="46.780620243967725" fill="#2b7bba"><title>reification/F-Q2 rewriting: 3823ms, rows=0</title></rect><rect x="627.1666666666665" y="245.72482887843677" width="11.666666666666666" height="124.27517112156323" fill="#7a52c7"><title>reification/F-Q2 rewriting+removeProjections: 10156ms, rows=0</title></rect><rect x="640.8333333333333" y="360.577798172154" width="11.666666666666666" height="9.422201827845972" fill="#17a398"><title>reification/F-Q2 rewriting+pushDownAssertions: 770ms, rows=0</title></rect><rect x="654.4999999999999" y="368.6172612901992" width="11.666666666666666" height="1.3827387098007724" fill="#e08214"><title>reification/F-Q2 materialized: 113ms, rows=0</title></rect><text x="640.8333333333333" y="384" text-anchor="end" transform="rotate(-40 640.8333333333333 384)" fill="#222222">F-Q2</text><rect x="681.8333333333333" y="322.71767810026387" width="11.666666666666666" height="47.28232189973615" fill="#2b7bba"><title>reification/F-Q3 rewriting: 3864ms, rows=0</title></rect><text x="709.1666666666666" y="384" text-anchor="end" transform="rotate(-40 709.1666666666666 384)" fill="#222222">F-Q3</text><rect x="750.1666666666665" y="322.2159764444954" width="11.666666666666666" height="47.784023555504575" fill="#2b7bba"><title>reification/F-Q4 rewriting: 3905ms, rows=0</title></rect><rect x="763.8333333333331" y="50" width="11.666666666666666" height="320" fill="#7a52c7"><title>reification/F-Q4 rewriting+removeProjections: 26151ms, rows=20004</title></rect><rect x="777.4999999999999" y="285.46938931589614" width="11.666666666666666" height="84.53061068410386" fill="#17a398"><title>reification/F-Q4 rewriting+pushDownAssertions: 6908ms, rows=20004</title></rect><text x="777.4999999999999" y="384" text-anchor="end" transform="rotate(-40 777.4999999999999 384)" fill="#222222">F-Q4</text><rect x="818.4999999999999" y="322.2159764444954" width="11.666666666666666" height="47.784023555504575" fill="#2b7bba"><title>reification/F-Q5 rewriting: 3905ms, rows=0</title></rect><rect x="832.1666666666665" y="170.1269549921609" width="11.666666666666666" height="199.8730450078391" fill="#7a52c7"><title>reification/F-Q5 rewriting+removeProjections: 16334ms, rows=3386</title></rect><rect x="845.8333333333333" y="320.4783755879316" width="11.666666666666666" height="49.52162441206837" fill="#17a398"><title>reification/F-Q5 rewriting+pushDownAssertions: 4047ms, rows=3386</title></rect><text x="845.8333333333333" y="384" text-anchor="end" transform="rotate(-40 845.8333333333333 384)" fill="#222222">F-Q5</text>
<rect x="740" y="50" width="12" height="12" fill="#2b7bba"/>
<text x="758" y="61" fill="#222222">rewriting</text>
<rect x="740" y="68" width="12" height="12" fill="#7a52c7"/>
<text x="758" y="79" fill="#222222">rewriting+removeProjections</text>
<rect x="740" y="86" width="12" height="12" fill="#17a398"/>
<text x="758" y="97" fill="#222222">rewriting+pushDownAssertions</text>
<rect x="740" y="104" width="12" height="12" fill="#e08214"/>
<text x="758" y="115" fill="#222222">materialized</text>
</svg>