<?xml version="1.0" encoding="UTF-8"?>
<svg xmlns="http://www.w3.org/2000/svg" width="900" height="460" font-family="sans-serif" font-size="12">
<rect width="900" height="460" fill="white"/>
<text x="450" y="24" text-anchor="middle" font-size="16" fill="#222222">singleton / oxigraph — median query time by query (scale xs)</text><line x1="60" y1="370" x2="880" y2="370" stroke="#cccccc"/><text x="54" y="374" text-anchor="end" fill="#222222">0</text><line x1="60" y1="290" x2="880" y2="290" stroke="#cccccc"/><text x="54" y="294" text-anchor="end" fill="#222222">58</text><line x1="60" y1="210" x2="880" y2="210" stroke="#cccccc"/><text x="54" y="214" text-anchor="end" fill="#222222">116</text><line x1="60" y1="130" x2="880" y2="130" stroke="#cccccc"/><text x="54" y="134" text-anchor="end" fill="#222222">173</text><line x1="60" y1="50" x2="880" y2="50" stroke="#cccccc"/><text x="54" y="54" text-anchor="end" fill="#222222">231</text><text x="16" y="210" transform="rotate(-90 16 210)" text-anchor="middle" fill="#222222">median ms</text><rect x="107.83333333333333" y="339.5238095238095" width="11.666666666666666" height="30.476190476190474" fill="#e08214"><title>singleton/A-Q1 materialized: 22ms, rows=3</title></rect><text x="94.16666666666666" y="384" text-anchor="end" transform="rotate(-40 94.16666666666666 384)" fill="#222222">A-Q1</text><rect x="176.16666666666663" y="340.9090909090909" width="11.666666666666666" height="29.090909090909093" fill="#e08214"><title>singleton/A-Q2 materialized: 21ms, rows=0</title></rect><text x="162.49999999999997" y="384" text-anchor="end" transform="rotate(-40 162.49999999999997 384)" fill="#222222">A-Q2</text><rect x="244.49999999999997" y="318.7445887445887" width="11.666666666666666" height="51.25541125541125" fill="#e08214"><title>singleton/A-Q3 materialized: 37ms, rows=0</title></rect><text x="230.83333333333331" y="384" text-anchor="end" transform="rotate(-40 230.83333333333331 384)" fill="#222222">A-Q3</text><rect x="312.83333333333337" y="50" width="11.666666666666666" height="320" fill="#e08214"><title>singleton/A-Q4 materialized: 231ms, rows=1</title></rect><text x="299.1666666666667" y="384" text-anchor="end" transform="rotate(-40 299.1666666666667 384)" fill="#222222">A-Q4</text><rect x="381.1666666666667" y="338.13852813852816" width="11.666666666666666" height="31.861471861471863" fill="#e08214"><title>singleton/B-Q1 materialized: 23ms, rows=5</title></rect><text x="367.5" y="384" text-anchor="end" transform="rotate(-40 367.5 384)" fill="#222222">B-Q1</text><rect x="449.5" y="340.9090909090909" width="11.666666666666666" height="29.090909090909093" fill="#e08214"><title>singleton/B-Q2 materialized: 21ms, rows=0</title></rect><text x="435.8333333333333" y="384" text-anchor="end" transform="rotate(-40 435.8333333333333 384)" fill="#222222">B-Q2</text><rect x="517.8333333333334" y="340.9090909090909" width="11.666666666666666" height="29.090909090909093" fill="#e08214"><title>singleton/B-Q3 materialized: 21ms, rows=0</title></rect><text x="504.1666666666667" y="384" text-anchor="end" transform="rotate(-40 504.1666666666667 384)" fill="#222222">B-Q3</text><rect x="586.1666666666665" y="315.97402597402595" width="11.666666666666666" height="54.02597402597402" fill="#e08214"><title>singleton/F-Q1 materialized: 39ms, rows=0</title></rect><text x="572.4999999999999" y="384" text-anchor="end" transform="rotate(-40 572.4999999999999 384)" fill="#222222">F-Q1</text><rect x="654.4999999999999" y="317.35930735930737" width="11.666666666666666" height="52.64069264069264" fill="#e08214"><title>singleton/F-Q2 materialized: 38ms, rows=0</title></rect><text x="640.8333333333333" y="384" text-anchor="end" transform="rotate(-40 640.8333333333333 384)" fill="#222222">F-Q2</text><rect x="722.8333333333333" y="332.5974025974026" width="11.666666666666666" height="37.4025974025974" fill="#e08214"><title>singleton/F-Q3 materialized: 27ms, rows=0</title></rect><text x="709.1666666666666" y="384" text-anchor="end" transform="rotate(-40 709.1666666666666 384)" fill="#222222">F-Q3</text><rect x="791.1666666666665" y="331.2121212121212" width="11.666666666666666" height="38.78787878787879" fill="#e08214"><title>singleton/F-Q4 materialized: 28ms, rows=0</title></rect><text x="777.4999999999999" y="384" text-anchor="end" transform="rotate(-40 777.4999999999999 384)" fill="#222222">F-Q4</text><rect x="859.4999999999999" y="332.5974025974026" width="11.666666666666666" height="37.4025974025974" fill="#e08214"><title>singleton/F-Q5 materialized: 27ms, rows=0</title></rect><text x="845.8333333333333" y="384" text-anchor="end" transform="rotate(-40 845.8333333333333 384)" fill="#222222">F-Q5</text>
<rect x="740" y="50" width="12" height="12" fill="#2b7bba"/>
<text x="758" y="61" fill="#222222">rewriting</text>
<rect x="740" y="68" width="12" height="12" fill="#7a52c7"/>
<text x="758" y="79" fill="#222222">rewriting+removeProjections</text>
<rect x="740" y="86" width="12" height="12" fill="#17a398"/>
<text x="758" y="97" fill="#222222">rewriting+pushDownAssertions</text>
<rect x="740" y="104" width="12" height="12" fill="#e08214"/>
<text x="758" y="115" fill="#222222">materialized</text>
</svg>