<?xml version="1.0" encoding="UTF-8"?>
<svg xmlns="http://www.w3.org/2000/svg" width="760" height="440" font-family="sans-serif" font-size="12">
<rect width="760" height="440" fill="white"/>
<text x="380" y="24" text-anchor="middle" font-size="16" fill="#222222">singleton / jena — total query time vs dataset size</text><line x1="70" y1="380" x2="740" y2="380" stroke="#cccccc"/><text x="64" y="384" text-anchor="end" fill="#222222">0</text><line x1="70" y1="297.5" x2="740" y2="297.5" stroke="#cccccc"/><text x="64" y="301.5" text-anchor="end" fill="#222222">37779</text><line x1="70" y1="215" x2="740" y2="215" stroke="#cccccc"/><text x="64" y="219" text-anchor="end" fill="#222222">75559</text><line x1="70" y1="132.5" x2="740" y2="132.5" stroke="#cccccc"/><text x="64" y="136.5" text-anchor="end" fill="#222222">113338</text><line x1="70" y1="50" x2="740" y2="50" stroke="#cccccc"/><text x="64" y="54" text-anchor="end" fill="#222222">151117</text><text x="405" y="398" text-anchor="middle" fill="#222222">xs
</text><text x="405" y="412" text-anchor="middle" font-size="10" fill="#222222">0.00M</text><text x="405" y="398" text-anchor="middle" fill="#222222">s
</text><text x="405" y="412" text-anchor="middle" font-size="10" fill="#222222">0.00M</text><text x="380" y="434" text-anchor="middle" fill="#222222">dataset size (quads)</text><text x="18" y="215" transform="rotate(-90 18 215)" text-anchor="middle" fill="#222222">total median ms</text><path d="M405,321.5151174255709 L405,247.73751464097353" fill="none" stroke="#2b7bba" stroke-width="2"/><circle cx="405" cy="321.5151174255709" r="3.5" fill="#2b7bba"><title>rewriting xs: 26782ms</title></circle><circle cx="405" cy="247.73751464097353" r="3.5" fill="#2b7bba"><title>rewriting s: 60567ms</title></circle><path d="M405,219.53234910698333 L405,50" fill="none" stroke="#7a52c7" stroke-width="2"/><circle cx="405" cy="219.53234910698333" r="3.5" fill="#7a52c7"><title>rewriting+removeProjections xs: 73483ms</title></circle><circle cx="405" cy="50" r="3.5" fill="#7a52c7"><title>rewriting+removeProjections s: 151117ms</title></circle><path d="M405,321.20721030724536 L405,289.6521900249476" fill="none" stroke="#17a398" stroke-width="2"/><circle cx="405" cy="321.20721030724536" r="3.5" fill="#17a398"><title>rewriting+pushDownAssertions xs: 26923ms</title></circle><circle cx="405" cy="289.6521900249476" r="3.5" fill="#17a398"><title>rewriting+pushDownAssertions s: 41373ms</title></circle><path d="M405,378.04337036865473 L405,378.2508255192996" fill="none" stroke="#e08214" stroke-width="2"/><circle cx="405" cy="378.04337036865473" r="3.5" fill="#e08214"><title>materialized xs: 896ms</title></circle><circle cx="405" cy="378.2508255192996" r="3.5" fill="#e08214"><title>materialized s: 801ms</title></circle>
<rect x="80" y="50" width="12" height="12" fill="#2b7bba"/>
<text x="98" y="61" fill="#222222">rewriting</text>
<rect x="80" y="68" width="12" height="12" fill="#7a52c7"/>
<text x="98" y="79" fill="#222222">rewriting+removeProjections</text>
<rect x="80" y="86" width="12" height="12" fill="#17a398"/>
<text x="98" y="97" fill="#222222">rewriting+pushDownAssertions</text>
<rect x="80" y="104" width="12" height="12" fill="#e08214"/>
<text x="98" y="115" fill="#222222">materialized</text>
</svg>