<?xml version="1.0" encoding="UTF-8"?>
<svg xmlns="http://www.w3.org/2000/svg" width="900" height="460" font-family="sans-serif" font-size="12">
<rect width="900" height="460" fill="white"/>
<text x="450" y="24" text-anchor="middle" font-size="16" fill="#222222">reification / oxigraph — median query time by query (scale s)</text><line x1="60" y1="370" x2="880" y2="370" stroke="#cccccc"/><text x="54" y="374" text-anchor="end" fill="#222222">0</text><line x1="60" y1="290" x2="880" y2="290" stroke="#cccccc"/><text x="54" y="294" text-anchor="end" fill="#222222">274</text><line x1="60" y1="210" x2="880" y2="210" stroke="#cccccc"/><text x="54" y="214" text-anchor="end" fill="#222222">549</text><line x1="60" y1="130" x2="880" y2="130" stroke="#cccccc"/><text x="54" y="134" text-anchor="end" fill="#222222">823</text><line x1="60" y1="50" x2="880" y2="50" stroke="#cccccc"/><text x="54" y="54" text-anchor="end" fill="#222222">1097</text><text x="16" y="210" transform="rotate(-90 16 210)" text-anchor="middle" fill="#222222">median ms</text><rect x="112.1818181818182" y="363.58249772105745" width="12.90909090909091" height="6.417502278942571" fill="#e08214"><title>reification/A-Q1 materialized: 22ms, rows=3</title></rect><text x="97.27272727272728" y="384" text-anchor="end" transform="rotate(-40 97.27272727272728 384)" fill="#222222">A-Q1</text><rect x="186.72727272727275" y="292.40656335460346" width="12.90909090909091" height="77.59343664539654" fill="#e08214"><title>reification/A-Q2 materialized: 266ms, rows=1</title></rect><text x="171.81818181818184" y="384" text-anchor="end" transform="rotate(-40 171.81818181818184 384)" fill="#222222">A-Q2</text><rect x="261.2727272727273" y="248.359161349134" width="12.90909090909091" height="121.64083865086599" fill="#e08214"><title>reification/A-Q3 materialized: 417ms, rows=1</title></rect><text x="246.36363636363637" y="384" text-anchor="end" transform="rotate(-40 246.36363636363637 384)" fill="#222222">A-Q3</text><rect x="335.8181818181818" y="221.8140382862352" width="12.90909090909091" height="148.1859617137648" fill="#e08214"><title>reification/A-Q4 materialized: 508ms, rows=1</title></rect><text x="320.9090909090909" y="384" text-anchor="end" transform="rotate(-40 320.9090909090909 384)" fill="#222222">A-Q4</text><rect x="410.3636363636364" y="362.99908842297174" width="12.90909090909091" height="7.000911577028259" fill="#e08214"><title>reification/B-Q1 materialized: 24ms, rows=5</title></rect><text x="395.45454545454544" y="384" text-anchor="end" transform="rotate(-40 395.45454545454544 384)" fill="#222222">B-Q1</text><rect x="484.90909090909093" y="291.82315405651775" width="12.90909090909091" height="78.17684594348222" fill="#e08214"><title>reification/B-Q2 materialized: 268ms, rows=1</title></rect><text x="470" y="384" text-anchor="end" transform="rotate(-40 470 384)" fill="#222222">B-Q2</text><rect x="559.4545454545454" y="289.19781221513216" width="12.90909090909091" height="80.80218778486783" fill="#e08214"><title>reification/B-Q3 materialized: 277ms, rows=0</title></rect><text x="544.5454545454545" y="384" text-anchor="end" transform="rotate(-40 544.5454545454545 384)" fill="#222222">B-Q3</text><rect x="634" y="262.9443938012762" width="12.90909090909091" height="107.0556061987238" fill="#e08214"><title>reification/F-Q1 materialized: 367ms, rows=2</title></rect><text x="619.0909090909091" y="384" text-anchor="end" transform="rotate(-40 619.0909090909091 384)" fill="#222222">F-Q1</text><rect x="708.5454545454545" y="271.1121239744758" width="12.90909090909091" height="98.88787602552415" fill="#e08214"><title>reification/F-Q2 materialized: 339ms, rows=0</title></rect><text x="693.6363636363636" y="384" text-anchor="end" transform="rotate(-40 693.6363636363636 384)" fill="#222222">F-Q2</text><rect x="783.090909090909" y="50" width="12.90909090909091" height="320" fill="#e08214"><title>reification/F-Q4 materialized: 1097ms, rows=20004</title></rect><text x="768.1818181818181" y="384" text-anchor="end" transform="rotate(-40 768.1818181818181 384)" fill="#222222">F-Q4</text><rect x="857.6363636363636" y="192.35186873290792" width="12.90909090909091" height="177.64813126709208" fill="#e08214"><title>reification/F-Q5 materialized: 609ms, rows=3386</title></rect><text x="842.7272727272727" y="384" text-anchor="end" transform="rotate(-40 842.7272727272727 384)" fill="#222222">F-Q5</text>
<rect x="740" y="50" width="12" height="12" fill="#2b7bba"/>
<text x="758" y="61" fill="#222222">rewriting</text>
<rect x="740" y="68" width="12" height="12" fill="#7a52c7"/>
<text x="758" y="79" fill="#222222">rewriting+removeProjections</text>
<rect x="740" y="86" width="12" height="12" fill="#17a398"/>
<text x="758" y="97" fill="#222222">rewriting+pushDownAssertions</text>
<rect x="740" y="104" width="12" height="12" fill="#e08214"/>
<text x="758" y="115" fill="#222222">materialized</text>
</svg>