<?xml version="1.0" encoding="UTF-8"?>
<svg xmlns="http://www.w3.org/2000/svg" width="900" height="460" font-family="sans-serif" font-size="12">
<rect width="900" height="460" fill="white"/>
<text x="450" y="24" text-anchor="middle" font-size="16" fill="#222222">reification / comunica — median query time by query (scale s)</text><line x1="60" y1="370" x2="880" y2="370" stroke="#cccccc"/><text x="54" y="374" text-anchor="end" fill="#222222">0</text><line x1="60" y1="290" x2="880" y2="290" stroke="#cccccc"/><text x="54" y="294" text-anchor="end" fill="#222222">7749</text><line x1="60" y1="210" x2="880" y2="210" stroke="#cccccc"/><text x="54" y="214" text-anchor="end" fill="#222222">15498</text><line x1="60" y1="130" x2="880" y2="130" stroke="#cccccc"/><text x="54" y="134" text-anchor="end" fill="#222222">23247</text><line x1="60" y1="50" x2="880" y2="50" stroke="#cccccc"/><text x="54" y="54" text-anchor="end" fill="#222222">30996</text><text x="16" y="210" transform="rotate(-90 16 210)" text-anchor="middle" fill="#222222">median ms</text><rect x="150.33333333333331" y="368.5443283004259" width="20" height="1.4556716995741388" fill="#e08214"><title>reification/A-Q1 materialized: 141ms, rows=3</title></rect><text x="128.33333333333331" y="384" text-anchor="end" transform="rotate(-40 128.33333333333331 384)" fill="#222222">A-Q1</text><rect x="287" y="367.5016131113692" width="20" height="2.498386888630791" fill="#e08214"><title>reification/A-Q2 materialized: 242ms, rows=1</title></rect><text x="265" y="384" text-anchor="end" transform="rotate(-40 265 384)" fill="#222222">A-Q2</text><rect x="423.66666666666663" y="362.938443670151" width="20" height="7.0615563298490125" fill="#e08214"><title>reification/B-Q1 materialized: 684ms, rows=5</title></rect><text x="401.66666666666663" y="384" text-anchor="end" transform="rotate(-40 401.66666666666663 384)" fill="#222222">B-Q1</text><rect x="560.3333333333334" y="332.9887727448703" width="20" height="37.0112272551297" fill="#e08214"><title>reification/B-Q2 materialized: 3585ms, rows=1</title></rect><text x="538.3333333333334" y="384" text-anchor="end" transform="rotate(-40 538.3333333333334 384)" fill="#222222">B-Q2</text><rect x="697" y="288.3688217834559" width="20" height="81.63117821654407" fill="#e08214"><title>reification/B-Q3 materialized: 7907ms, rows=0</title></rect><text x="675" y="384" text-anchor="end" transform="rotate(-40 675 384)" fill="#222222">B-Q3</text><rect x="833.6666666666666" y="50" width="20" height="320" fill="#e08214"><title>reification/F-Q5 materialized: 30996ms, rows=3386</title></rect><text x="811.6666666666666" y="384" text-anchor="end" transform="rotate(-40 811.6666666666666 384)" fill="#222222">F-Q5</text>
<rect x="740" y="50" width="12" height="12" fill="#2b7bba"/>
<text x="758" y="61" fill="#222222">rewriting</text>
<rect x="740" y="68" width="12" height="12" fill="#7a52c7"/>
<text x="758" y="79" fill="#222222">rewriting+removeProjections</text>
<rect x="740" y="86" width="12" height="12" fill="#17a398"/>
<text x="758" y="97" fill="#222222">rewriting+pushDownAssertions</text>
<rect x="740" y="104" width="12" height="12" fill="#e08214"/>
<text x="758" y="115" fill="#222222">materialized</text>
</svg>