<?xml version="1.0" encoding="UTF-8"?>
<svg xmlns="http://www.w3.org/2000/svg" width="900" height="460" font-family="sans-serif" font-size="12">
<rect width="900" height="460" fill="white"/>
<text x="450" y="24" text-anchor="middle" font-size="16" fill="#222222">singleton / comunica — median query time by query (scale s)</text><line x1="60" y1="370" x2="880" y2="370" stroke="#cccccc"/><text x="54" y="374" text-anchor="end" fill="#222222">0</text><line x1="60" y1="290" x2="880" y2="290" stroke="#cccccc"/><text x="54" y="294" text-anchor="end" fill="#222222">860</text><line x1="60" y1="210" x2="880" y2="210" stroke="#cccccc"/><text x="54" y="214" text-anchor="end" fill="#222222">1721</text><line x1="60" y1="130" x2="880" y2="130" stroke="#cccccc"/><text x="54" y="134" text-anchor="end" fill="#222222">2581</text><line x1="60" y1="50" x2="880" y2="50" stroke="#cccccc"/><text x="54" y="54" text-anchor="end" fill="#222222">3441</text><text x="16" y="210" transform="rotate(-90 16 210)" text-anchor="middle" fill="#222222">median ms</text><rect x="112.1818181818182" y="309.8314443475734" width="12.90909090909091" height="60.16855565242662" fill="#e08214"><title>singleton/A-Q1 materialized: 647ms, rows=3</title></rect><text x="97.27272727272728" y="384" text-anchor="end" transform="rotate(-40 97.27272727272728 384)" fill="#222222">A-Q1</text><rect x="186.72727272727275" y="329.91862830572506" width="12.90909090909091" height="40.08137169427492" fill="#e08214"><title>singleton/A-Q2 materialized: 431ms, rows=0</title></rect><text x="171.81818181818184" y="384" text-anchor="end" transform="rotate(-40 171.81818181818184 384)" fill="#222222">A-Q2</text><rect x="261.2727272727273" y="328.8026736413833" width="12.90909090909091" height="41.19732635861668" fill="#e08214"><title>singleton/A-Q3 materialized: 443ms, rows=0</title></rect><text x="246.36363636363637" y="384" text-anchor="end" transform="rotate(-40 246.36363636363637 384)" fill="#222222">A-Q3</text><rect x="335.8181818181818" y="246.6870095902354" width="12.90909090909091" height="123.31299040976461" fill="#e08214"><title>singleton/B-Q1 materialized: 1326ms, rows=5</title></rect><text x="320.9090909090909" y="384" text-anchor="end" transform="rotate(-40 320.9090909090909 384)" fill="#222222">B-Q1</text><rect x="410.3636363636364" y="276.5387968613775" width="12.90909090909091" height="93.4612031386225" fill="#e08214"><title>singleton/B-Q2 materialized: 1005ms, rows=0</title></rect><text x="395.45454545454544" y="384" text-anchor="end" transform="rotate(-40 395.45454545454544 384)" fill="#222222">B-Q2</text><rect x="484.90909090909093" y="189.02935193257775" width="12.90909090909091" height="180.97064806742225" fill="#e08214"><title>singleton/B-Q3 materialized: 1946ms, rows=0</title></rect><text x="470" y="384" text-anchor="end" transform="rotate(-40 470 384)" fill="#222222">B-Q3</text><rect x="559.4545454545454" y="330.6625980819529" width="12.90909090909091" height="39.33740191804708" fill="#e08214"><title>singleton/F-Q1 materialized: 423ms, rows=0</title></rect><text x="544.5454545454545" y="384" text-anchor="end" transform="rotate(-40 544.5454545454545 384)" fill="#222222">F-Q1</text><rect x="634" y="50" width="12.90909090909091" height="320" fill="#e08214"><title>singleton/F-Q2 materialized: 3441ms, rows=0</title></rect><text x="619.0909090909091" y="384" text-anchor="end" transform="rotate(-40 619.0909090909091 384)" fill="#222222">F-Q2</text><rect x="708.5454545454545" y="301.36878814298166" width="12.90909090909091" height="68.63121185701831" fill="#e08214"><title>singleton/F-Q3 materialized: 738ms, rows=0</title></rect><text x="693.6363636363636" y="384" text-anchor="end" transform="rotate(-40 693.6363636363636 384)" fill="#222222">F-Q3</text><rect x="783.090909090909" y="296.6259808195292" width="12.90909090909091" height="73.3740191804708" fill="#e08214"><title>singleton/F-Q4 materialized: 789ms, rows=0</title></rect><text x="768.1818181818181" y="384" text-anchor="end" transform="rotate(-40 768.1818181818181 384)" fill="#222222">F-Q4</text><rect x="857.6363636363636" y="305.5536181342633" width="12.90909090909091" height="64.44638186573671" fill="#e08214"><title>singleton/F-Q5 materialized: 693ms, rows=0</title></rect><text x="842.7272727272727" y="384" text-anchor="end" transform="rotate(-40 842.7272727272727 384)" fill="#222222">F-Q5</text>
<rect x="740" y="50" width="12" height="12" fill="#2b7bba"/>
<text x="758" y="61" fill="#222222">rewriting</text>
<rect x="740" y="68" width="12" height="12" fill="#7a52c7"/>
<text x="758" y="79" fill="#222222">rewriting+removeProjections</text>
<rect x="740" y="86" width="12" height="12" fill="#17a398"/>
<text x="758" y="97" fill="#222222">rewriting+pushDownAssertions</text>
<rect x="740" y="104" width="12" height="12" fill="#e08214"/>
<text x="758" y="115" fill="#222222">materialized</text>
</svg>